<svg width="65" height="65" viewBox="0 0 65 65" fill="none" xmlns="http://www.w3.org/2000/svg">
<circle cx="32.5" cy="32.5" r="32.5" fill="white"/>
<g clip-path="url(#clip0_303_1371)">
<path d="M45.7203 18.178H20.3813C18.2528 18.1804 16.5278 19.9053 16.5254 22.0339V44.0678C16.5278 46.1964 18.2528 47.9213 20.3813 47.9237H45.7203C47.8489 47.9213 49.5738 46.1964 49.5762 44.0678V22.0339C49.5738 19.9053 47.8489 18.1804 45.7203 18.178ZM48.4745 44.0678C48.4727 45.5882 47.2407 46.8202 45.7203 46.822H20.3813C18.861 46.8202 17.6289 45.5882 17.6271 44.0678V22.0339C17.6289 20.5135 18.861 19.2815 20.3813 19.2797H45.7203C47.2407 19.2815 48.4727 20.5135 48.4745 22.0339V44.0678Z" fill="#D80027"/>
<path d="M45.7203 22.5842H20.3813C19.4686 22.5842 18.7288 23.3241 18.7288 24.2368V44.0673C18.7288 44.98 19.4686 45.7198 20.3813 45.7198H45.7203C46.633 45.7198 47.3728 44.98 47.3728 44.0673V24.2368C47.3728 23.3241 46.633 22.5842 45.7203 22.5842ZM33.0508 33.5263L27.0515 30.2961L33.0508 27.0659L39.0501 30.2961L33.0508 33.5263ZM39.661 31.2182V37.6775L33.6016 40.9418V34.4825L39.661 31.2182ZM32.4999 34.4825V40.9418L26.4406 37.6775V31.2182L32.4999 34.4825ZM19.8305 24.2368C19.8305 23.9325 20.0771 23.6859 20.3813 23.6859H32.4999V26.1097L25.6287 29.8113C25.6215 29.8152 25.6133 29.8169 25.6061 29.8213C25.4395 29.9213 25.338 30.1018 25.3389 30.2961V34.9133L19.8305 37.6675V24.2368ZM46.2711 44.0673C46.2711 44.3715 46.0245 44.6181 45.7203 44.6181H20.3813C20.0771 44.6181 19.8305 44.3715 19.8305 44.0673V38.8992L25.3389 36.145V38.008C25.339 38.2105 25.4503 38.3967 25.6287 38.4927L32.7897 42.3486C32.9527 42.4364 33.1489 42.4364 33.3119 42.3486L40.4729 38.4927C40.6513 38.3967 40.7626 38.2105 40.7627 38.008V36.145L46.2711 38.8992V44.0673ZM46.2711 37.6675L40.7627 34.9133V30.2961C40.7626 30.1023 40.6607 29.9229 40.4944 29.8235C40.4872 29.8191 40.479 29.8174 40.4718 29.8136L33.6016 26.1097V23.6859H45.7203C46.0245 23.6859 46.2711 23.9325 46.2711 24.2368V37.6675Z" fill="#D80027"/>
<path d="M19.8304 21.4828C20.1346 21.4828 20.3812 21.2362 20.3812 20.932C20.3812 20.6277 20.1346 20.3811 19.8304 20.3811C19.5262 20.3811 19.2795 20.6277 19.2795 20.932C19.2795 21.2362 19.5262 21.4828 19.8304 21.4828Z" fill="#D80027"/>
<path d="M22.0338 21.4828C22.338 21.4828 22.5846 21.2362 22.5846 20.932C22.5846 20.6277 22.338 20.3811 22.0338 20.3811C21.7295 20.3811 21.4829 20.6277 21.4829 20.932C21.4829 21.2362 21.7295 21.4828 22.0338 21.4828Z" fill="#D80027"/>
<path d="M24.2372 21.4828C24.5415 21.4828 24.7881 21.2362 24.7881 20.932C24.7881 20.6277 24.5415 20.3811 24.2372 20.3811C23.933 20.3811 23.6864 20.6277 23.6864 20.932C23.6864 21.2362 23.933 21.4828 24.2372 21.4828Z" fill="#D80027"/>
<path d="M38.0085 21.4828H45.7204C46.0246 21.4828 46.2712 21.2362 46.2712 20.932C46.2712 20.6277 46.0246 20.3811 45.7204 20.3811H38.0085C37.7043 20.3811 37.4576 20.6277 37.4576 20.932C37.4576 21.2362 37.7043 21.4828 38.0085 21.4828Z" fill="#D80027"/>
</g>
<defs>
<clipPath id="clip0_303_1371">
<rect width="33.0508" height="33.0508" fill="white" transform="translate(16.5254 16.5254)"/>
</clipPath>
</defs>
</svg>
