<svg width="65" height="65" viewBox="0 0 65 65" fill="none" xmlns="http://www.w3.org/2000/svg">
<circle cx="32.5" cy="32.5" r="32.5" fill="white"/>
<g clip-path="url(#clip0_303_1338)">
<path d="M21.4056 27.2422H13.2203V29.5661H21.4056C22.0463 29.5661 22.5676 30.0873 22.5676 30.728C22.5676 31.3687 22.0463 31.89 21.4056 31.89H16.7062C14.7841 31.89 13.2203 33.4537 13.2203 35.3758V38.8616H15.5442V35.3758C15.5442 34.7351 16.0655 34.2139 16.7062 34.2139H21.4056C23.3277 34.2139 24.8914 32.6501 24.8914 30.728C24.8914 28.8059 23.3277 27.2422 21.4056 27.2422Z" fill="#D80027"/>
<path d="M33.6318 27.2422C31.7097 27.2422 30.146 28.8059 30.146 30.728V35.3758C30.146 36.0165 29.6247 36.5377 28.984 36.5377H23.7295V38.8616H28.984C30.9061 38.8616 32.4699 37.2979 32.4699 35.3758V30.728C32.4699 30.0873 32.9911 29.5661 33.6318 29.5661H38.8864V27.2422H33.6318Z" fill="#D80027"/>
<path d="M50.5574 34.2137V29.5661C50.5574 28.2847 49.5149 27.2422 48.2335 27.2422C47.7934 27.2422 47.3646 27.3661 46.9934 27.6005L39.6345 32.2483C38.9558 32.6769 38.5507 33.4116 38.5507 34.2139C38.5507 35.4952 39.5932 36.5377 40.8745 36.5377H48.2335V38.8616H50.5574V36.5377H52.8813V34.2139L50.5574 34.2137ZM48.2335 34.2136L40.8754 34.2132L48.2335 29.5661V34.2136Z" fill="#D80027"/>
</g>
<defs>
<clipPath id="clip0_303_1338">
<rect width="39.661" height="39.661" fill="white" transform="translate(13.2203 13.2207)"/>
</clipPath>
</defs>
</svg>
