<svg width="65" height="65" viewBox="0 0 65 65" fill="none" xmlns="http://www.w3.org/2000/svg">
<circle cx="32.5" cy="32.5" r="32.5" fill="white"/>
<g clip-path="url(#clip0_303_1389)">
<path d="M47.3522 42.4493L46.6906 39.9802C46.6045 39.6588 46.274 39.4678 45.9527 39.5542C45.6312 39.6403 45.4405 39.9707 45.5266 40.2921L45.8163 41.373L41.5885 38.9614V28.9382C41.5885 28.7225 41.4732 28.5233 41.2863 28.4158L32.5507 23.3935V18.6208L33.3297 19.3998C33.565 19.635 33.9465 19.635 34.1818 19.3998C34.4171 19.1645 34.4171 18.783 34.1818 18.5476L32.3742 16.74C32.1387 16.5036 31.753 16.5083 31.5221 16.74L29.7145 18.5476C29.4792 18.7829 29.4792 19.1644 29.7145 19.3998C29.9498 19.635 30.3313 19.635 30.5667 19.3998L31.3457 18.6208V23.3945L22.6687 28.4167C22.4826 28.5244 22.368 28.7232 22.368 28.9382V38.864L18.0807 41.3002L18.3708 40.2173C18.4569 39.8959 18.2662 39.5655 17.9447 39.4794C17.6232 39.3931 17.2929 39.584 17.2068 39.9055L16.5453 42.3752C16.4615 42.6879 16.6488 43.0359 16.9894 43.1179L19.4405 43.7747C19.7645 43.8615 20.093 43.6674 20.1785 43.3486C20.2646 43.0272 20.0739 42.6969 19.7524 42.6107L18.7069 42.3306L22.9619 39.9126L31.6804 45.0465C31.867 45.1564 32.0988 45.1579 32.2871 45.0493L34.4973 43.7752C34.7856 43.609 34.8845 43.2405 34.7184 42.9523C34.5522 42.664 34.1837 42.5651 33.8954 42.7312L31.9894 43.83L24.1706 39.2259L31.9102 34.8278L39.799 39.3279L38.5921 40.0237C38.3038 40.1898 38.2049 40.5583 38.371 40.8465C38.5373 41.1349 38.9058 41.2339 39.194 41.0676L41.0118 40.0196L45.1922 42.4044L44.1452 42.6849C43.8238 42.771 43.633 43.1014 43.7192 43.4228C43.8049 43.7426 44.1342 43.9355 44.4571 43.8488L46.8719 43.2019C47.2167 43.141 47.4447 42.7944 47.3522 42.4493ZM40.3834 38.2739L32.5506 33.8058V24.7835L40.3834 29.2868V38.2739ZM23.573 29.2856L31.3456 24.787V33.7625L23.573 38.1792V29.2856Z" fill="#D80027"/>
<path d="M36.5273 42.4726C36.8601 42.4726 37.1299 42.2029 37.1299 41.8701C37.1299 41.5373 36.8601 41.2676 36.5273 41.2676C36.1946 41.2676 35.9248 41.5373 35.9248 41.8701C35.9248 42.2029 36.1946 42.4726 36.5273 42.4726Z" fill="#D80027"/>
</g>
<defs>
<clipPath id="clip0_303_1389">
<rect width="30.8475" height="30.8475" fill="white" transform="translate(16.5254 15.4238)"/>
</clipPath>
</defs>
</svg>
