<svg width="56" height="62" viewBox="0 0 56 62" fill="none" xmlns="http://www.w3.org/2000/svg">
<path d="M34.0534 21.1781L22.6347 2.40938C21.8909 1.14063 20.5566 0.375 19.0909 0.375H4.6753C1.50343 0.375 -0.487197 3.7875 1.06593 6.54375C3.95263 11.651 8.02688 15.9878 12.9441 19.1875C14.6066 20.4781 16.6628 21.1781 18.7847 21.1781H34.0534Z" fill="#0074BA"/>
<path d="M51.3117 0.375H36.8961C35.4305 0.375 34.0961 1.14063 33.3523 2.40938L21.9336 21.1781H37.2242C39.3461 21.1781 41.3805 20.4781 43.0648 19.1875C47.9867 15.9938 52.0555 11.6625 54.943 6.54375C56.4742 3.7875 54.4836 0.375 51.3117 0.375Z" fill="#00A6ED"/>
<path d="M27.9781 61.625C40.1078 61.625 49.9406 51.5472 49.9406 39.1156C49.9406 26.6841 40.1078 16.6063 27.9781 16.6063C15.8484 16.6063 6.01562 26.6841 6.01562 39.1156C6.01562 51.5472 15.8484 61.625 27.9781 61.625Z" fill="#FFB02E"/>
<path d="M23.7891 31.0897C23.7891 30.5095 24.0195 29.9531 24.4298 29.5429C24.84 29.1327 25.3964 28.9022 25.9766 28.9022H27.9978C28.578 28.9022 29.1344 29.1327 29.5446 29.5429C29.9548 29.9531 30.1853 30.5095 30.1853 31.0897V46.3125C30.1853 46.8927 29.9548 47.4491 29.5446 47.8593C29.1344 48.2695 28.578 48.5 27.9978 48.5C27.4177 48.5 26.8613 48.2695 26.451 47.8593C26.0408 47.4491 25.8103 46.8927 25.8103 46.3125V33.2706C25.2606 33.2287 24.7469 32.9808 24.3721 32.5764C23.9974 32.172 23.7891 31.641 23.7891 31.0897Z" fill="#6D4534"/>
<path d="M27.9994 58.9125C22.8369 58.9125 17.9807 56.8562 14.3494 53.1156C10.6948 49.3746 8.65951 44.3454 8.68381 39.1156C8.68381 33.8219 10.6963 28.8562 14.3494 25.1156C16.1219 23.2838 18.2448 21.8272 20.5916 20.8324C22.9384 19.8376 25.4614 19.325 28.0104 19.325C30.5593 19.325 33.0823 19.8376 35.4291 20.8324C37.776 21.8272 39.8988 23.2838 41.6713 25.1156C49.1963 32.8375 49.1963 45.3937 41.6713 53.1156C37.9963 56.8562 33.1401 58.9125 27.9994 58.9125ZM27.9776 22.0094C23.7119 22.0094 19.4244 23.6719 16.1869 27.0187C13.0378 30.2555 11.286 34.5997 11.3088 39.1156C11.3088 43.6875 13.0369 47.975 16.1869 51.2125C17.7139 52.798 19.5453 54.059 21.5713 54.9197C23.5973 55.7805 25.7763 56.2234 27.9776 56.2219C32.4401 56.2219 36.6182 54.45 39.7682 51.2125C46.2651 44.5406 46.2651 33.6906 39.7682 27.0187C38.2424 25.4316 36.4113 24.1696 34.385 23.3087C32.3587 22.4478 30.1791 22.0058 27.9776 22.0094Z" fill="#FCD53F"/>
</svg>
