<svg width="70" height="70" viewBox="0 0 70 70" fill="none" xmlns="http://www.w3.org/2000/svg">
<path d="M41.0534 25.1781L29.6347 6.40938C28.8909 5.14063 27.5566 4.375 26.0909 4.375H11.6753C8.50343 4.375 6.5128 7.7875 8.06593 10.5438C10.9526 15.651 15.0269 19.9878 19.9441 23.1875C21.6066 24.4781 23.6628 25.1781 25.7847 25.1781H41.0534Z" fill="#0074BA"/>
<path d="M58.3117 4.375H43.8961C42.4305 4.375 41.0961 5.14063 40.3523 6.40938L28.9336 25.1781H44.2242C46.3461 25.1781 48.3805 24.4781 50.0648 23.1875C54.9867 19.9938 59.0555 15.6625 61.943 10.5438C63.4742 7.7875 61.4836 4.375 58.3117 4.375Z" fill="#00A6ED"/>
<path d="M34.9781 65.625C47.1078 65.625 56.9406 55.5472 56.9406 43.1156C56.9406 30.6841 47.1078 20.6063 34.9781 20.6063C22.8484 20.6063 13.0156 30.6841 13.0156 43.1156C13.0156 55.5472 22.8484 65.625 34.9781 65.625Z" fill="#FFB02E"/>
<path d="M34.9994 62.9125C29.8369 62.9125 24.9807 60.8563 21.3494 57.1156C17.6948 53.3747 15.6595 48.3455 15.6838 43.1156C15.6838 37.8219 17.6963 32.8563 21.3494 29.1156C23.1219 27.2838 25.2448 25.8272 27.5916 24.8324C29.9384 23.8377 32.4614 23.325 35.0104 23.325C37.5593 23.325 40.0823 23.8377 42.4291 24.8324C44.776 25.8272 46.8988 27.2838 48.6713 29.1156C56.1963 36.8375 56.1963 49.3938 48.6713 57.1156C44.9963 60.8563 40.1401 62.9125 34.9994 62.9125ZM34.9776 26.0094C30.7119 26.0094 26.4244 27.6719 23.1869 31.0188C20.0378 34.2555 18.286 38.5997 18.3088 43.1156C18.3088 47.6875 20.0369 51.975 23.1869 55.2125C24.7139 56.7981 26.5453 58.059 28.5713 58.9198C30.5973 59.7805 32.7763 60.2234 34.9776 60.2219C39.4401 60.2219 43.6182 58.45 46.7682 55.2125C53.2651 48.5406 53.2651 37.6906 46.7682 31.0188C45.2424 29.4316 43.4113 28.1696 41.385 27.3087C39.3587 26.4478 37.1791 26.0059 34.9776 26.0094Z" fill="#FCD53F"/>
<path d="M29.3991 50V48.4091L34.321 43.3097C34.8466 42.7557 35.2798 42.2704 35.6207 41.8537C35.9664 41.4323 36.2244 41.0322 36.3949 40.6534C36.5653 40.2746 36.6506 39.8722 36.6506 39.446C36.6506 38.9631 36.5369 38.5464 36.3097 38.196C36.0824 37.8409 35.7723 37.5687 35.3793 37.3793C34.9863 37.1851 34.5436 37.0881 34.0511 37.0881C33.5303 37.0881 33.0758 37.1946 32.6875 37.4077C32.2992 37.6207 32.0009 37.9214 31.7926 38.3097C31.5843 38.6979 31.4801 39.1525 31.4801 39.6733H29.3849C29.3849 38.7879 29.5885 38.0137 29.9957 37.3509C30.4029 36.688 30.9616 36.1742 31.6719 35.8097C32.3821 35.4403 33.1894 35.2557 34.0938 35.2557C35.0076 35.2557 35.8125 35.438 36.5085 35.8026C37.2093 36.1624 37.7562 36.6548 38.1491 37.2798C38.5421 37.9001 38.7386 38.6009 38.7386 39.3821C38.7386 39.9219 38.6368 40.4498 38.4332 40.9659C38.2344 41.482 37.8864 42.0573 37.3892 42.6918C36.892 43.3215 36.2008 44.0862 35.3153 44.9858L32.4247 48.0114V48.1179H38.973V50H29.3991Z" fill="black"/>
</svg>
