<svg width="138" height="19" viewBox="0 0 138 19" fill="none" xmlns="http://www.w3.org/2000/svg">
<path d="M0.526143 14.6V1.75804H3.72732L7.33795 9.4632L10.9486 1.75804H14.1498V14.6H11.4697V6.48536L8.45464 12.9249H6.22126L3.2062 6.48536V14.6H0.526143ZM16.876 11.5849V7.78817C16.876 5.77813 17.8811 4.77311 19.8911 4.77311H22.4967C24.5068 4.77311 25.5118 5.77813 25.5118 7.78817V11.5849C25.5118 13.595 24.5068 14.6 22.4967 14.6H19.8911C17.8811 14.6 16.876 13.595 16.876 11.5849ZM19.4444 11.771C19.4444 12.1681 19.643 12.3666 20.04 12.3666H22.3478C22.7449 12.3666 22.9434 12.1681 22.9434 11.771V7.60205C22.9434 7.20501 22.7449 7.00649 22.3478 7.00649H20.04C19.643 7.00649 19.4444 7.20501 19.4444 7.60205V11.771ZM28.0392 14.6V0.82747H30.6076V4.77311H33.4737C35.4838 4.77311 36.4888 5.77813 36.4888 7.78817V11.5849C36.4888 13.595 35.4838 14.6 33.4737 14.6H28.0392ZM30.6076 12.3666H33.3248C33.7219 12.3666 33.9204 12.1681 33.9204 11.771V7.60205C33.9204 7.20501 33.7219 7.00649 33.3248 7.00649H30.6076V12.3666ZM38.9612 3.15391V0.641354H41.6413V3.15391H38.9612ZM39.017 14.6V4.77311H41.5854V14.6H39.017ZM44.1953 11.0266V0.82747H46.7636V11.2871C46.7636 12.0564 47.1607 12.4845 47.9548 12.5713V14.7861C45.4484 14.7861 44.1953 13.5329 44.1953 11.0266ZM49.8824 11.5849V7.78817C49.8824 5.77813 50.8874 4.77311 52.8974 4.77311H55.3169C57.327 4.77311 58.332 5.77813 58.332 7.78817V10.6357H52.4508V11.771C52.4508 12.1681 52.6493 12.3666 53.0463 12.3666H57.9598V13.7625L56.8431 14.6H52.8974C50.8874 14.6 49.8824 13.595 49.8824 11.5849ZM52.4508 8.66291H55.7636V7.60205C55.7636 7.20501 55.5651 7.00649 55.168 7.00649H53.0463C52.6493 7.00649 52.4508 7.20501 52.4508 7.60205V8.66291ZM65.521 14.6V1.75804H68.201V12.1805H73.7473V14.6H65.521ZM75.3823 11.5849V7.78817C75.3823 5.77813 76.3873 4.77311 78.3974 4.77311H80.8169C82.8269 4.77311 83.8319 5.77813 83.8319 7.78817V10.6357H77.9507V11.771C77.9507 12.1681 78.1492 12.3666 78.5463 12.3666H83.4597V13.7625L82.343 14.6H78.3974C76.3873 14.6 75.3823 13.595 75.3823 11.5849ZM77.9507 8.66291H81.2635V7.60205C81.2635 7.20501 81.065 7.00649 80.668 7.00649H78.5463C78.1492 7.00649 77.9507 7.20501 77.9507 7.60205V8.66291ZM86.1403 11.5849V7.78817C86.1403 5.77813 87.1453 4.77311 89.1554 4.77311H94.5899V15.3072C94.5899 17.3173 93.5849 18.3223 91.5749 18.3223H88.0945L86.9778 17.4848V16.0889H91.426C91.823 16.0889 92.0216 15.8904 92.0216 15.4933V14.6H89.1554C87.1453 14.6 86.1403 13.595 86.1403 11.5849ZM88.7087 11.771C88.7087 12.1681 88.9072 12.3666 89.3043 12.3666H92.0216V7.00649H89.3043C88.9072 7.00649 88.7087 7.20501 88.7087 7.60205V11.771ZM97.0472 11.5849V7.78817C97.0472 5.77813 98.0523 4.77311 100.062 4.77311H102.482C104.492 4.77311 105.497 5.77813 105.497 7.78817V10.6357H99.6156V11.771C99.6156 12.1681 99.8141 12.3666 100.211 12.3666H105.125V13.7625L104.008 14.6H100.062C98.0523 14.6 97.0472 13.595 97.0472 11.5849ZM99.6156 8.66291H102.928V7.60205C102.928 7.20501 102.73 7.00649 102.333 7.00649H100.211C99.8141 7.00649 99.6156 7.20501 99.6156 7.60205V8.66291ZM108.029 14.6V4.77311H113.463C115.473 4.77311 116.478 5.77813 116.478 7.78817V14.6H113.91V7.60205C113.91 7.20501 113.711 7.00649 113.314 7.00649H110.597V14.6H108.029ZM118.93 11.5849V7.78817C118.93 5.77813 119.935 4.77311 121.945 4.77311H124.812V0.82747H127.38V14.6H121.945C119.935 14.6 118.93 13.595 118.93 11.5849ZM121.499 11.771C121.499 12.1681 121.697 12.3666 122.094 12.3666H124.812V7.00649H122.094C121.697 7.00649 121.499 7.20501 121.499 7.60205V11.771ZM129.722 13.7625V12.3666H134.003C134.425 12.3666 134.635 12.1309 134.635 11.6594C134.635 11.1755 134.462 10.9025 134.114 10.8405L132.104 10.5054C130.516 10.2325 129.722 9.31431 129.722 7.75095C129.722 5.76572 130.727 4.77311 132.737 4.77311H135.622L136.739 5.61062V7.00649H132.886C132.464 7.00649 132.253 7.24223 132.253 7.71372C132.253 8.21003 132.446 8.4892 132.83 8.55124L134.822 8.88625C136.397 9.14681 137.185 10.0526 137.185 11.6035C137.185 13.6012 136.174 14.6 134.152 14.6H130.839L129.722 13.7625Z" fill="url(#paint0_linear_259_1418)"/>
<defs>
<linearGradient id="paint0_linear_259_1418" x1="-1" y1="9.09998" x2="160.151" y2="52.878" gradientUnits="userSpaceOnUse">
<stop stop-color="#D80027"/>
<stop offset="1" stop-color="#FB9E3C"/>
</linearGradient>
</defs>
</svg>
