<svg width="92" height="92" viewBox="0 0 92 92" fill="none" xmlns="http://www.w3.org/2000/svg">
<g clip-path="url(#clip0_120_970)">
<path d="M79.0625 1.16792L4.3125 44.2749C-1.86875 47.8507 -1.27578 56.9968 5.33672 59.7101L25.875 68.2093V83.3749C25.875 91.7124 36.5125 95.1445 41.4359 88.514L49.3062 77.8945L69.4133 86.196C70.4734 86.6273 71.5875 86.8429 72.7016 86.8429C74.175 86.8429 75.6305 86.4656 76.9422 85.7289C79.2422 84.4351 80.8234 82.1351 81.2367 79.5296L91.9102 9.95463C93.0062 2.74917 85.2797 -2.40787 79.0625 1.16792ZM34.5 83.3749V71.7671L41.0766 74.4804L34.5 83.3749ZM72.7016 78.2179L45.0656 66.8078L70.2578 30.457C72.1805 27.6718 68.5508 24.4374 65.9992 26.6476L27.9953 59.764L8.625 51.7499L83.375 8.62495L72.7016 78.2179Z" fill="url(#paint0_linear_120_970)"/>
</g>
<defs>
<linearGradient id="paint0_linear_120_970" x1="0.00781181" y1="46.004" x2="110.364" y2="50.7927" gradientUnits="userSpaceOnUse">
<stop stop-color="#D80027"/>
<stop offset="1" stop-color="#FB9E3C"/>
</linearGradient>
<clipPath id="clip0_120_970">
<rect width="92" height="92" fill="white"/>
</clipPath>
</defs>
</svg>
