<svg width="20" height="20" viewBox="0 0 20 20" fill="none" xmlns="http://www.w3.org/2000/svg">
<path d="M7.4987 2.65625V16.5104L10.4935 17.4219V5.83333C10.4935 5.5013 10.5098 5.32227 10.6758 5.15625C10.7604 4.99023 10.9264 4.99349 11.0924 5.07812C11.5091 5.24414 11.7435 5.58268 11.7435 6.25V10.8333C12.7428 11.3346 13.5762 11.3346 14.2435 10.8333C14.9108 10.332 15.2591 9.58333 15.2591 8.33333C15.2591 6.9987 15.0085 6.16211 14.4258 5.49479C13.9245 4.82747 13 4.24479 11.6654 3.82812C9.9987 3.32682 8.58268 2.9069 7.4987 2.65625ZM6.66536 11.3281L2.83724 12.6562L2.23828 12.9167C1.32031 13.3333 0.832031 13.75 0.832031 14.1667C0.916667 14.668 1.09245 15.3385 2.34245 15.7552C3.50781 16.1719 4.40951 16.3444 6.74349 15.6771V14.1667C4.49414 14.9154 4.15885 14.8275 3.82682 14.6615C3.49479 14.4954 3.50781 14.3294 3.59245 14.2448C3.8431 14.0788 4.73828 13.75 4.73828 13.75L6.66536 13.0729V11.3281ZM15.1549 11.9792C14.8848 11.9694 14.5918 11.9857 14.3216 12.0052C13.4036 12.0052 12.5866 12.1712 11.5872 12.4219V14.1667L13.4102 13.4896L14.4258 13.1771C14.4258 13.1771 14.8262 13.0794 15.0768 12.9948C15.4935 12.9102 15.9883 13.0729 15.9883 13.0729C16.2389 13.0729 16.4049 13.1673 16.4049 13.3333C16.4896 13.4993 16.3268 13.584 15.9102 13.75L14.9987 14.0885L11.6654 15.3385V17.0833L13.1758 16.5885L17.3424 15.0781L17.8372 14.8438C18.8366 14.5117 19.25 14.0951 19.1654 13.5938C19.1654 13.0924 18.5762 12.7539 17.5768 12.4219C16.763 12.1712 15.9688 12.0052 15.1549 11.9792Z" fill="#D7D7D7" fill-opacity="0.54"/>
</svg>
