<svg width="14" height="11" viewBox="0 0 14 11" fill="none" xmlns="http://www.w3.org/2000/svg">
<path d="M0 1.75C0 1.28587 0.184374 0.840752 0.512563 0.512563C0.840752 0.184374 1.28587 0 1.75 0H12.25C12.7141 0 13.1592 0.184374 13.4874 0.512563C13.8156 0.840752 14 1.28587 14 1.75V6.125H0V1.75ZM10.0625 2.625C9.94647 2.625 9.83519 2.67109 9.75314 2.75314C9.67109 2.83519 9.625 2.94647 9.625 3.0625V3.9375C9.625 4.05353 9.67109 4.16481 9.75314 4.24686C9.83519 4.32891 9.94647 4.375 10.0625 4.375H11.8125C11.9285 4.375 12.0398 4.32891 12.1219 4.24686C12.2039 4.16481 12.25 4.05353 12.25 3.9375V3.0625C12.25 2.94647 12.2039 2.83519 12.1219 2.75314C12.0398 2.67109 11.9285 2.625 11.8125 2.625H10.0625ZM0 7.875V8.75C0 9.21413 0.184374 9.65925 0.512563 9.98744C0.840752 10.3156 1.28587 10.5 1.75 10.5H12.25C12.7141 10.5 13.1592 10.3156 13.4874 9.98744C13.8156 9.65925 14 9.21413 14 8.75V7.875H0Z" fill="#A956FF"/>
</svg>
